<?xml version="1.0" encoding="UTF-8" standalone="no"?>
<svg
   width="77.42"
   height="79.97"
   version="1.1"
   id="svg170"
   sodipodi:docname="firefox_bookmark2.svg"
   inkscape:version="1.2.2 (b0a8486541, 2022-12-01)"
   xmlns:inkscape="http://www.inkscape.org/namespaces/inkscape"
   xmlns:sodipodi="http://sodipodi.sourceforge.net/DTD/sodipodi-0.dtd"
   xmlns="http://www.w3.org/2000/svg"
   xmlns:svg="http://www.w3.org/2000/svg"
   xmlns:rdf="http://www.w3.org/1999/02/22-rdf-syntax-ns#"
   xmlns:cc="http://creativecommons.org/ns#"
   xmlns:dc="http://purl.org/dc/elements/1.1/">
  <sodipodi:namedview
     id="namedview172"
     pagecolor="#ffffff"
     bordercolor="#111111"
     borderopacity="1"
     inkscape:showpageshadow="0"
     inkscape:pageopacity="0"
     inkscape:pagecheckerboard="1"
     inkscape:deskcolor="#d1d1d1"
     showgrid="false"
     inkscape:zoom="12.842316"
     inkscape:cx="36.130556"
     inkscape:cy="40.062868"
     inkscape:window-width="2560"
     inkscape:window-height="1440"
     inkscape:window-x="2560"
     inkscape:window-y="0"
     inkscape:window-maximized="1"
     inkscape:current-layer="svg170" />
  <title
     id="title2">Firefox Browser logo</title>
  <defs
     id="defs148">
    <linearGradient
       y2="73.28302"
       y1="12.18903"
       x2="5.2296123"
       x1="70.609923"
       id="a"
       gradientTransform="scale(0.98413627,1.0161194)"
       gradientUnits="userSpaceOnUse">
      <stop
         offset="0.048"
         stop-color="#fff44f"
         id="stop4" />
      <stop
         offset="0.111"
         stop-color="#ffe847"
         id="stop6" />
      <stop
         offset="0.225"
         stop-color="#ffc830"
         id="stop8" />
      <stop
         offset="0.368"
         stop-color="#ff980e"
         id="stop10" />
      <stop
         offset="0.401"
         stop-color="#ff8b16"
         id="stop12" />
      <stop
         offset="0.462"
         stop-color="#ff672a"
         id="stop14" />
      <stop
         offset="0.534"
         stop-color="#ff3647"
         id="stop16" />
      <stop
         offset="0.705"
         stop-color="#e31587"
         id="stop18" />
    </linearGradient>
    <radialGradient
       gradientUnits="userSpaceOnUse"
       gradientTransform="translate(7974,8524)"
       r="80.8"
       cy="-8515"
       cx="-7907"
       id="b">
      <stop
         offset="0.129"
         stop-color="#ffbd4f"
         id="stop21" />
      <stop
         offset="0.186"
         stop-color="#ffac31"
         id="stop23" />
      <stop
         offset="0.247"
         stop-color="#ff9d17"
         id="stop25" />
      <stop
         offset="0.283"
         stop-color="#ff980e"
         id="stop27" />
      <stop
         offset="0.403"
         stop-color="#ff563b"
         id="stop29" />
      <stop
         offset="0.467"
         stop-color="#ff3750"
         id="stop31" />
      <stop
         offset="0.71"
         stop-color="#f5156c"
         id="stop33" />
      <stop
         offset="0.782"
         stop-color="#eb0878"
         id="stop35" />
      <stop
         offset="0.86"
         stop-color="#e50080"
         id="stop37" />
    </radialGradient>
    <radialGradient
       gradientUnits="userSpaceOnUse"
       gradientTransform="translate(7974,8524)"
       r="80.8"
       cy="-8482"
       cx="-7937"
       id="c">
      <stop
         offset="0.3"
         stop-color="#960e18"
         id="stop40" />
      <stop
         offset="0.351"
         stop-opacity="0.74"
         stop-color="#b11927"
         id="stop42" />
      <stop
         offset="0.435"
         stop-opacity="0.343"
         stop-color="#db293d"
         id="stop44" />
      <stop
         offset="0.497"
         stop-opacity="0.094"
         stop-color="#f5334b"
         id="stop46" />
      <stop
         offset="0.53"
         stop-opacity="0"
         stop-color="#ff3750"
         id="stop48" />
    </radialGradient>
    <radialGradient
       gradientUnits="userSpaceOnUse"
       gradientTransform="translate(7974,8524)"
       r="58.53"
       cy="-8533"
       cx="-7927"
       id="d">
      <stop
         offset="0.132"
         stop-color="#fff44f"
         id="stop51" />
      <stop
         offset="0.252"
         stop-color="#ffdc3e"
         id="stop53" />
      <stop
         offset="0.506"
         stop-color="#ff9d12"
         id="stop55" />
      <stop
         offset="0.526"
         stop-color="#ff980e"
         id="stop57" />
    </radialGradient>
    <radialGradient
       gradientUnits="userSpaceOnUse"
       gradientTransform="translate(7974,8524)"
       r="38.47"
       cy="-8461"
       cx="-7946"
       id="e">
      <stop
         offset="0.353"
         stop-color="#3a8ee6"
         id="stop60" />
      <stop
         offset="0.472"
         stop-color="#5c79f0"
         id="stop62" />
      <stop
         offset="0.669"
         stop-color="#9059ff"
         id="stop64" />
      <stop
         offset="1"
         stop-color="#c139e6"
         id="stop66" />
    </radialGradient>
    <radialGradient
       gradientUnits="userSpaceOnUse"
       gradientTransform="matrix(0.972,-0.235,0.275,1.138,10090,7834)"
       r="20.4"
       cy="-8492"
       cx="-7936"
       id="f">
      <stop
         offset="0.206"
         stop-opacity="0"
         stop-color="#9059ff"
         id="stop69" />
      <stop
         offset="0.278"
         stop-opacity="0.064"
         stop-color="#8c4ff3"
         id="stop71" />
      <stop
         offset="0.747"
         stop-opacity="0.45"
         stop-color="#7716a8"
         id="stop73" />
      <stop
         offset="0.975"
         stop-opacity="0.6"
         stop-color="#6e008b"
         id="stop75" />
    </radialGradient>
    <radialGradient
       gradientUnits="userSpaceOnUse"
       gradientTransform="translate(7974,8524)"
       r="27.68"
       cy="-8518"
       cx="-7938"
       id="g">
      <stop
         offset="0"
         stop-color="#ffe226"
         id="stop78" />
      <stop
         offset="0.121"
         stop-color="#ffdb27"
         id="stop80" />
      <stop
         offset="0.295"
         stop-color="#ffc82a"
         id="stop82" />
      <stop
         offset="0.502"
         stop-color="#ffa930"
         id="stop84" />
      <stop
         offset="0.732"
         stop-color="#ff7e37"
         id="stop86" />
      <stop
         offset="0.792"
         stop-color="#ff7139"
         id="stop88" />
    </radialGradient>
    <radialGradient
       gradientUnits="userSpaceOnUse"
       gradientTransform="translate(7974,8524)"
       r="118.1"
       cy="-8536"
       cx="-7916"
       id="h">
      <stop
         offset="0.113"
         stop-color="#fff44f"
         id="stop91" />
      <stop
         offset="0.456"
         stop-color="#ff980e"
         id="stop93" />
      <stop
         offset="0.622"
         stop-color="#ff5634"
         id="stop95" />
      <stop
         offset="0.716"
         stop-color="#ff3647"
         id="stop97" />
      <stop
         offset="0.904"
         stop-color="#e31587"
         id="stop99" />
    </radialGradient>
    <radialGradient
       gradientUnits="userSpaceOnUse"
       gradientTransform="matrix(0.105,0.995,-0.653,0.069,-4685,8470)"
       r="86.5"
       cy="-8523"
       cx="-7927"
       id="i">
      <stop
         offset="0"
         stop-color="#fff44f"
         id="stop102" />
      <stop
         offset="0.06"
         stop-color="#ffe847"
         id="stop104" />
      <stop
         offset="0.168"
         stop-color="#ffc830"
         id="stop106" />
      <stop
         offset="0.304"
         stop-color="#ff980e"
         id="stop108" />
      <stop
         offset="0.356"
         stop-color="#ff8b16"
         id="stop110" />
      <stop
         offset="0.455"
         stop-color="#ff672a"
         id="stop112" />
      <stop
         offset="0.57"
         stop-color="#ff3647"
         id="stop114" />
      <stop
         offset="0.737"
         stop-color="#e31587"
         id="stop116" />
    </radialGradient>
    <radialGradient
       gradientUnits="userSpaceOnUse"
       gradientTransform="translate(7974,8524)"
       r="73.72"
       cy="-8508"
       cx="-7938"
       id="j">
      <stop
         offset="0.137"
         stop-color="#fff44f"
         id="stop119" />
      <stop
         offset="0.48"
         stop-color="#ff980e"
         id="stop121" />
      <stop
         offset="0.592"
         stop-color="#ff5634"
         id="stop123" />
      <stop
         offset="0.655"
         stop-color="#ff3647"
         id="stop125" />
      <stop
         offset="0.904"
         stop-color="#e31587"
         id="stop127" />
    </radialGradient>
    <radialGradient
       gradientUnits="userSpaceOnUse"
       gradientTransform="translate(7974,8524)"
       r="80.69"
       cy="-8504"
       cx="-7919"
       id="k">
      <stop
         offset="0.094"
         stop-color="#fff44f"
         id="stop130" />
      <stop
         offset="0.231"
         stop-color="#ffe141"
         id="stop132" />
      <stop
         offset="0.509"
         stop-color="#ffaf1e"
         id="stop134" />
      <stop
         offset="0.626"
         stop-color="#ff980e"
         id="stop136" />
    </radialGradient>
    <linearGradient
       y2="65.741008"
       y1="11.863962"
       x2="14.195943"
       x1="69.820958"
       id="l"
       gradientTransform="scale(0.98408702,1.0161703)"
       gradientUnits="userSpaceOnUse">
      <stop
         offset="0.167"
         stop-opacity="0.8"
         stop-color="#fff44f"
         id="stop139" />
      <stop
         offset="0.266"
         stop-opacity="0.634"
         stop-color="#fff44f"
         id="stop141" />
      <stop
         offset="0.489"
         stop-opacity="0.217"
         stop-color="#fff44f"
         id="stop143" />
      <stop
         offset="0.6"
         stop-opacity="0"
         stop-color="#fff44f"
         id="stop145" />
    </linearGradient>
  </defs>
  <metadata
     id="metadata150">Firefox Browser logo<rdf:RDF>
  <cc:Work
     rdf:about="">
    <dc:title>Firefox Browser logo</dc:title>
  </cc:Work>
</rdf:RDF>
</metadata>
  <g
     id="g1644">
    <g
       id="svg_1"
       transform="matrix(0.9819843,0,0,0.9819843,0.6974849,0.7199239)">
      <path
         id="svg_2"
         fill="url(#a)"
         d="m 74.62,26.83 c -1.684,-4.052 -5.1,-8.427 -7.775,-9.81 a 40.27,40.27 0 0 1 3.925,11.76 l 0.007,0.065 C 66.395,17.925 58.967,13.515 52.897,3.925 52.59,3.44 52.283,2.954 51.984,2.441 51.813,2.148 51.676,1.884 51.557,1.641 a 7.053,7.053 0 0 1 -0.578,-1.535 0.1,0.1 0 0 0 -0.088,-0.1 0.138,0.138 0 0 0 -0.073,0 c -0.005,0 -0.013,0.009 -0.019,0.011 -0.006,0.002 -0.019,0.011 -0.028,0.015 l 0.015,-0.026 c -9.735,5.7 -13.04,16.25 -13.34,21.53 a 19.39,19.39 0 0 0 -10.67,4.111 11.59,11.59 0 0 0 -1,-0.758 17.97,17.97 0 0 1 -0.109,-9.473 28.7,28.7 0 0 0 -9.329,7.21 H 16.32 c -1.536,-1.947 -1.428,-8.367 -1.34,-9.708 a 6.928,6.928 0 0 0 -1.294,0.687 28.22,28.22 0 0 0 -3.788,3.245 33.84,33.84 0 0 0 -3.623,4.347 v 0.006 -0.007 a 32.73,32.73 0 0 0 -5.2,11.74 l -0.052,0.256 c -0.073,0.341 -0.336,2.049 -0.381,2.42 0,0.029 -0.006,0.056 -0.009,0.085 A 36.94,36.94 0 0 0 0.004,41.04 v 0.2 a 38.76,38.76 0 0 0 76.95,6.554 c 0.065,-0.5 0.118,-0.995 0.176,-1.5 A 39.86,39.86 0 0 0 74.616,26.824 Z M 29.95,57.17 c 0.181,0.087 0.351,0.181 0.537,0.264 l 0.027,0.017 Q 30.232,57.316 29.95,57.17 Z m 8.878,-23.38 m 31.95,-4.934 v -0.037 l 0.007,0.041 z"
         style="fill:url(#a)" />
      <path
         id="svg_3"
         fill="url(#b)"
         d="m 74.62,26.83 c -1.684,-4.052 -5.1,-8.427 -7.775,-9.81 a 40.27,40.27 0 0 1 3.925,11.76 v 0.037 l 0.007,0.041 a 35.1,35.1 0 0 1 -1.206,26.16 c -4.442,9.531 -15.19,19.3 -32.02,18.82 -18.18,-0.515 -34.2,-14.01 -37.19,-31.68 -0.545,-2.787 0,-4.2 0.274,-6.465 a 28.88,28.88 0 0 0 -0.623,5.348 v 0.2 a 38.76,38.76 0 0 0 76.95,6.554 c 0.065,-0.5 0.118,-0.995 0.176,-1.5 a 39.86,39.86 0 0 0 -2.514,-19.47 z"
         style="fill:url(#b)" />
      <path
         id="svg_4"
         fill="url(#c)"
         d="m 74.62,26.83 c -1.684,-4.052 -5.1,-8.427 -7.775,-9.81 a 40.27,40.27 0 0 1 3.925,11.76 v 0.037 l 0.007,0.041 a 35.1,35.1 0 0 1 -1.206,26.16 c -4.442,9.531 -15.19,19.3 -32.02,18.82 -18.18,-0.515 -34.2,-14.01 -37.19,-31.68 -0.545,-2.787 0,-4.2 0.274,-6.465 a 28.88,28.88 0 0 0 -0.623,5.348 v 0.2 a 38.76,38.76 0 0 0 76.95,6.554 c 0.065,-0.5 0.118,-0.995 0.176,-1.5 a 39.86,39.86 0 0 0 -2.514,-19.47 z"
         style="fill:url(#c)" />
      <path
         id="svg_5"
         fill="url(#d)"
         d="m 55.78,31.38 c 0.084,0.059 0.162,0.118 0.241,0.177 a 21.1,21.1 0 0 0 -3.6,-4.695 C 40.371,14.812 49.264,0.742 50.763,0.022 L 50.778,0 c -9.735,5.7 -13.04,16.25 -13.34,21.53 0.452,-0.031 0.9,-0.069 1.362,-0.069 a 19.56,19.56 0 0 1 16.98,9.917 z"
         style="fill:url(#d)" />
      <path
         id="svg_6"
         fill="url(#e)"
         d="m 38.82,33.79 c -0.064,0.964 -3.47,4.289 -4.661,4.289 -11.02,0 -12.81,6.667 -12.81,6.667 0.488,5.614 4.4,10.24 9.129,12.68 0.216,0.112 0.435,0.213 0.654,0.312 q 0.569,0.252 1.138,0.466 a 17.24,17.24 0 0 0 5.043,0.973 c 19.32,0.906 23.06,-23.1 9.119,-30.07 a 13.38,13.38 0 0 1 9.345,2.269 19.56,19.56 0 0 0 -16.98,-9.917 c -0.46,0 -0.91,0.038 -1.362,0.069 a 19.39,19.39 0 0 0 -10.67,4.111 c 0.591,0.5 1.258,1.168 2.663,2.553 2.63,2.591 9.375,5.275 9.39,5.59 z"
         style="fill:url(#e)" />
      <path
         id="svg_7"
         fill="url(#f)"
         d="m 38.82,33.79 c -0.064,0.964 -3.47,4.289 -4.661,4.289 -11.02,0 -12.81,6.667 -12.81,6.667 0.488,5.614 4.4,10.24 9.129,12.68 0.216,0.112 0.435,0.213 0.654,0.312 q 0.569,0.252 1.138,0.466 a 17.24,17.24 0 0 0 5.043,0.973 c 19.32,0.906 23.06,-23.1 9.119,-30.07 a 13.38,13.38 0 0 1 9.345,2.269 19.56,19.56 0 0 0 -16.98,-9.917 c -0.46,0 -0.91,0.038 -1.362,0.069 a 19.39,19.39 0 0 0 -10.67,4.111 c 0.591,0.5 1.258,1.168 2.663,2.553 2.63,2.591 9.375,5.275 9.39,5.59 z"
         style="fill:url(#f)" />
      <path
         id="svg_8"
         fill="url(#g)"
         d="m 24.96,24.36 c 0.314,0.2 0.573,0.374 0.8,0.531 a 17.97,17.97 0 0 1 -0.109,-9.473 28.7,28.7 0 0 0 -9.329,7.21 c 0.189,-0.005 5.811,-0.106 8.638,1.732 z"
         style="fill:url(#g)" />
      <path
         id="svg_9"
         fill="url(#h)"
         d="m 0.354,42.16 c 2.991,17.67 19.01,31.17 37.19,31.68 16.83,0.476 27.58,-9.294 32.02,-18.82 A 35.1,35.1 0 0 0 70.77,28.86 v -0.037 c 0,-0.029 -0.006,-0.046 0,-0.037 l 0.007,0.065 c 1.375,8.977 -3.191,17.67 -10.33,23.56 l -0.022,0.05 c -13.91,11.33 -27.22,6.834 -29.91,5 Q 30.233,57.326 29.951,57.18 C 21.842,53.304 18.491,45.92 19.211,39.58 a 9.953,9.953 0 0 1 -9.181,-5.775 14.62,14.62 0 0 1 14.25,-0.572 19.3,19.3 0 0 0 14.55,0.572 c -0.015,-0.315 -6.76,-3 -9.39,-5.59 -1.405,-1.385 -2.072,-2.052 -2.663,-2.553 a 11.59,11.59 0 0 0 -1,-0.758 c -0.23,-0.157 -0.489,-0.327 -0.8,-0.531 -2.827,-1.838 -8.449,-1.737 -8.635,-1.732 h -0.018 c -1.536,-1.947 -1.428,-8.367 -1.34,-9.708 A 6.928,6.928 0 0 0 13.69,13.62 28.22,28.22 0 0 0 9.902,16.865 33.84,33.84 0 0 0 6.264,21.202 v 0.006 -0.007 a 32.73,32.73 0 0 0 -5.2,11.74 C 1.045,33.02 -0.332,39.04 0.347,42.162 Z"
         style="fill:url(#h)" />
      <path
         id="svg_10"
         fill="url(#i)"
         d="m 52.42,26.86 a 21.1,21.1 0 0 1 3.6,4.7 c 0.213,0.161 0.412,0.321 0.581,0.476 8.787,8.1 4.183,19.55 3.84,20.36 7.138,-5.881 11.7,-14.58 10.33,-23.56 C 66.387,17.906 58.951,13.496 52.891,3.906 52.584,3.421 52.277,2.935 51.978,2.422 51.807,2.129 51.67,1.865 51.551,1.622 a 7.053,7.053 0 0 1 -0.578,-1.535 0.1,0.1 0 0 0 -0.088,-0.1 0.138,0.138 0 0 0 -0.073,0 c -0.005,0 -0.013,0.009 -0.019,0.011 -0.006,0.002 -0.019,0.011 -0.028,0.015 -1.499,0.711 -10.39,14.79 1.66,26.83 z"
         style="fill:url(#i)" />
      <path
         id="svg_11"
         fill="url(#j)"
         d="M 56.6,32.04 C 56.431,31.885 56.232,31.725 56.019,31.564 55.94,31.505 55.862,31.446 55.778,31.387 a 13.38,13.38 0 0 0 -9.345,-2.269 c 13.94,6.97 10.2,30.97 -9.119,30.07 a 17.24,17.24 0 0 1 -5.043,-0.973 q -0.569,-0.213 -1.138,-0.466 c -0.219,-0.1 -0.438,-0.2 -0.654,-0.312 l 0.027,0.017 c 2.694,1.839 16,6.332 29.91,-5 l 0.022,-0.05 c 0.347,-0.81 4.951,-12.26 -3.84,-20.36 z"
         style="fill:url(#j)" />
      <path
         id="svg_12"
         fill="url(#k)"
         d="m 21.35,44.74 c 0,0 1.789,-6.667 12.81,-6.667 1.191,0 4.6,-3.325 4.661,-4.289 a 19.3,19.3 0 0 1 -14.55,-0.572 14.62,14.62 0 0 0 -14.25,0.572 9.953,9.953 0 0 0 9.181,5.775 c -0.718,6.337 2.632,13.72 10.74,17.6 0.181,0.087 0.351,0.181 0.537,0.264 -4.733,-2.445 -8.641,-7.069 -9.129,-12.68 z"
         style="fill:url(#k)" />
      <path
         id="svg_13"
         fill="url(#l)"
         d="m 74.62,26.83 c -1.684,-4.052 -5.1,-8.427 -7.775,-9.81 a 40.27,40.27 0 0 1 3.925,11.76 l 0.007,0.065 C 66.395,17.925 58.967,13.515 52.897,3.925 52.59,3.44 52.283,2.954 51.984,2.441 51.813,2.148 51.676,1.884 51.557,1.641 a 7.053,7.053 0 0 1 -0.578,-1.535 0.1,0.1 0 0 0 -0.088,-0.1 0.138,0.138 0 0 0 -0.073,0 c -0.005,0 -0.013,0.009 -0.019,0.011 -0.006,0.002 -0.019,0.011 -0.028,0.015 l 0.015,-0.026 c -9.735,5.7 -13.04,16.25 -13.34,21.53 0.452,-0.031 0.9,-0.069 1.362,-0.069 a 19.56,19.56 0 0 1 16.98,9.917 13.38,13.38 0 0 0 -9.345,-2.269 c 13.94,6.97 10.2,30.97 -9.119,30.07 a 17.24,17.24 0 0 1 -5.043,-0.973 q -0.569,-0.213 -1.138,-0.466 c -0.219,-0.1 -0.438,-0.2 -0.654,-0.312 l 0.027,0.017 Q 30.234,57.316 29.952,57.17 c 0.181,0.087 0.351,0.181 0.537,0.264 -4.733,-2.446 -8.641,-7.07 -9.129,-12.68 0,0 1.789,-6.667 12.81,-6.667 1.191,0 4.6,-3.325 4.661,-4.289 -0.015,-0.315 -6.76,-3 -9.39,-5.59 -1.405,-1.385 -2.072,-2.052 -2.663,-2.553 a 11.59,11.59 0 0 0 -1,-0.758 17.97,17.97 0 0 1 -0.109,-9.473 28.7,28.7 0 0 0 -9.329,7.21 h -0.018 c -1.536,-1.947 -1.428,-8.367 -1.34,-9.708 A 6.928,6.928 0 0 0 13.688,13.613 28.22,28.22 0 0 0 9.9,16.858 33.84,33.84 0 0 0 6.277,21.205 v 0.006 -0.007 a 32.73,32.73 0 0 0 -5.2,11.74 L 1.025,33.2 c -0.073,0.341 -0.4,2.073 -0.447,2.445 a 45.09,45.09 0 0 0 -0.572,5.403 v 0.2 a 38.76,38.76 0 0 0 76.95,6.554 c 0.065,-0.5 0.118,-0.995 0.176,-1.5 a 39.86,39.86 0 0 0 -2.514,-19.47 z m -3.845,1.991 0.007,0.041 z"
         style="fill:url(#l)" />
    </g>
    <path
       sodipodi:type="star"
       style="fill:#ffff3e;stroke:#000000;stroke-opacity:1"
       id="path450"
       inkscape:flatsided="false"
       sodipodi:sides="5"
       sodipodi:cx="29.356075"
       sodipodi:cy="12.116195"
       sodipodi:r1="12.010453"
       sodipodi:r2="4.8518848"
       sodipodi:arg1="-1.5670796"
       sodipodi:arg2="-0.9387611"
       inkscape:rounded="0"
       inkscape:randomized="0"
       d="m 29.400715,0.10582446 2.821796,8.09573954 8.5699,0.2456769 -6.827523,5.1854091 2.414592,8.226377 -7.041438,-4.890981 -7.077599,4.838504 2.475675,-8.208201 -6.788789,-5.2360175 8.571489,-0.1819665 z"
       inkscape:transform-center-x="1.5910752"
       inkscape:transform-center-y="0.79991875"
       transform="matrix(1.5813256,0,0,1.5813256,10.650607,43.475607)" />
  </g>
</svg>
